<svg width="40" height="40" viewBox="0 0 40 40" fill="none" xmlns="http://www.w3.org/2000/svg">
<g id="radio_button_checked_24px">
<path id="icon/toggle/radio_button_checked_24px" fill-rule="evenodd" clip-rule="evenodd" d="M20 3.33337C10.8 3.33337 3.33334 10.8 3.33334 20C3.33334 29.2 10.8 36.6667 20 36.6667C29.2 36.6667 36.6667 29.2 36.6667 20C36.6667 10.8 29.2 3.33337 20 3.33337ZM20 33.3334C12.6333 33.3334 6.66667 27.3667 6.66667 20C6.66667 12.6334 12.6333 6.66671 20 6.66671C27.3667 6.66671 33.3333 12.6334 33.3333 20C33.3333 27.3667 27.3667 33.3334 20 33.3334ZM11.6667 20C11.6667 15.3977 15.3976 11.6667 20 11.6667C24.6024 11.6667 28.3333 15.3977 28.3333 20C28.3333 24.6024 24.6024 28.3334 20 28.3334C15.3976 28.3334 11.6667 24.6024 11.6667 20Z" fill="#158CD0"/>
</g>
</svg>
