<svg width="80" height="80" viewBox="0 0 80 80" fill="none" xmlns="http://www.w3.org/2000/svg">
<g id="local_phone_24px">
<path id="icon/maps/local_phone_24px" fill-rule="evenodd" clip-rule="evenodd" d="M10 66.6667L10 55C10 53.1667 11.5 51.6667 13.3333 51.6667C17.5 51.6667 21.5 51 25.2333 49.7667C26.4 49.4 27.7 49.6667 28.6333 50.6L35.9667 57.9333C45.4 53.1333 53.1 45.4 57.9333 35.9667L50.6 28.6333C49.9667 27.9667 49.6333 27.1333 49.6333 26.2667C49.6333 25.9333 49.6667 25.5667 49.8 25.2333C51.0333 21.5 51.7 17.4667 51.7 13.3333C51.7 11.5 53.2 10 55.0333 10H66.6667C68.5 10 70 11.5 70 13.3333C70 44.6333 44.6333 70 13.3333 70C11.5 70 10 68.5 10 66.6667ZM16.6667 58.1999C19.6333 57.9999 22.5333 57.4999 25.3 56.6999L29.3 60.6999C25.3 62.0666 21.0667 62.9333 16.6667 63.2333V58.1999ZM56.7334 25.3333C57.5334 22.5 58.0334 19.6 58.2334 16.6666H63.2001C62.9001 21.0666 62.0334 25.3 60.7001 29.3333L56.7334 25.3333Z" fill="white"/>
</g>
</svg>
