<svg width="80" height="80" viewBox="0 0 80 80" fill="none" xmlns="http://www.w3.org/2000/svg">
<g id="location_city_24px">
<path id="icon/social/location_city_24px" fill-rule="evenodd" clip-rule="evenodd" d="M50 18.3334V38.3334H70V71.6667H10V25H30V18.3334L40 8.33337L50 18.3334ZM16.6667 65H23.3333V58.3334H16.6667V65ZM23.3333 51.6667H16.6667V45H23.3333V51.6667ZM16.6667 38.3334H23.3333V31.6667H16.6667V38.3334ZM43.3333 65H36.6667V58.3334H43.3333V65ZM36.6667 51.6667H43.3333V45H36.6667V51.6667ZM43.3333 38.3334H36.6667V31.6667H43.3333V38.3334ZM36.6667 25H43.3333V18.3334H36.6667V25ZM63.3333 65H56.6667V58.3334H63.3333V65ZM56.6667 51.6667H63.3333V45H56.6667V51.6667Z" fill="#064264"/>
</g>
</svg>
