<svg width="80" height="80" viewBox="0 0 80 80" fill="none" xmlns="http://www.w3.org/2000/svg">
<g id="portrait_24px">
<path id="icon/image/portrait_24px" fill-rule="evenodd" clip-rule="evenodd" d="M63.3333 10H16.6667C12.9667 10 10 13 10 16.6667V63.3333C10 67 12.9667 70 16.6667 70H63.3333C67 70 70 67 70 63.3333V16.6667C70 13 67 10 63.3333 10ZM50 30C50 35.5 45.5 40 40 40C34.5 40 30 35.5 30 30C30 24.5 34.5 20 40 20C45.5 20 50 24.5 50 30ZM43.3333 30C43.3333 28.1667 41.8333 26.6667 40 26.6667C38.1667 26.6667 36.6667 28.1667 36.6667 30C36.6667 31.8333 38.1667 33.3333 40 33.3333C41.8333 33.3333 43.3333 31.8333 43.3333 30ZM60 55.2667C60 46.9333 46.7667 43.3333 40 43.3333C33.2333 43.3333 20 46.9333 20 55.2667V60H60V55.2667ZM40 50C35.7 50 30.7333 51.6333 28.2666 53.3333H51.7333C49.2666 51.6333 44.3 50 40 50ZM16.6667 63.3333H63.3333V16.6667H16.6667V63.3333Z" fill="#064264"/>
</g>
</svg>
