<svg width="80" height="80" viewBox="0 0 80 80" fill="none" xmlns="http://www.w3.org/2000/svg">
<g id="where_to_vote_24px">
<path id="icon/content/where_to_vote_24px" fill-rule="evenodd" clip-rule="evenodd" d="M40 2.51636C25.3 2.51636 13.3333 14.483 13.3333 29.183C13.3333 47.7497 36.5333 73.6497 37.5333 74.7497L40 77.483L42.4666 74.7497C43.4666 73.6497 66.6666 47.7497 66.6666 29.183C66.6666 14.483 54.7 2.51636 40 2.51636ZM40 67.4163C32.7333 58.7163 20 40.983 20 29.183C20 18.1497 28.9666 9.18302 40 9.18302C51.0333 9.18302 60 18.1497 60 29.183C60 41.9497 45.8333 60.383 40 67.4163ZM29.0333 30.5165L34.8999 36.4165L50.2333 21.0832L54.9333 25.8165L34.8999 45.8499L24.2999 35.2499L29.0333 30.5165Z" fill="white"/>
</g>
</svg>
